<?xml version="1.0" encoding="UTF-8"?>
<svg width="200" height="200" viewBox="0 0 200 200" fill="none" xmlns="http://www.w3.org/2000/svg">
    <!-- Background Circle -->
    <circle cx="100" cy="100" r="90" fill="#1E40AF" opacity="0.1"/>
    
    <!-- Bank Building -->
    <path d="M60 140V80L100 40L140 80V140H60Z" fill="#1E40AF"/>
    <path d="M80 140V100H120V140H80Z" fill="white"/>
    <path d="M90 140V110H110V140H90Z" fill="#1E40AF"/>
    
    <!-- AI Circuit Pattern -->
    <path d="M40 60C40 60 60 40 100 40C140 40 160 60 160 60" stroke="#1E40AF" stroke-width="4" stroke-linecap="round"/>
    <path d="M40 80C40 80 60 60 100 60C140 60 160 80 160 80" stroke="#1E40AF" stroke-width="4" stroke-linecap="round"/>
    <path d="M40 100C40 100 60 80 100 80C140 80 160 100 160 100" stroke="#1E40AF" stroke-width="4" stroke-linecap="round"/>
    
    <!-- AI Nodes -->
    <circle cx="70" cy="60" r="6" fill="#1E40AF"/>
    <circle cx="100" cy="60" r="6" fill="#1E40AF"/>
    <circle cx="130" cy="60" r="6" fill="#1E40AF"/>
    
    <circle cx="70" cy="80" r="6" fill="#1E40AF"/>
    <circle cx="100" cy="80" r="6" fill="#1E40AF"/>
    <circle cx="130" cy="80" r="6" fill="#1E40AF"/>
    
    <circle cx="70" cy="100" r="6" fill="#1E40AF"/>
    <circle cx="100" cy="100" r="6" fill="#1E40AF"/>
    <circle cx="130" cy="100" r="6" fill="#1E40AF"/>
    
    <!-- BankFlowAI Text -->
    <text x="100" y="170" font-family="Arial, sans-serif" font-size="16" font-weight="bold" text-anchor="middle" fill="#1E40AF">BankFlowAI</text>
</svg> 